<?xml version="1.0" encoding="UTF-8" standalone="no"?>
<!DOCTYPE svg PUBLIC "-//W3C//DTD SVG 1.1//EN" "http://www.w3.org/Graphics/SVG/1.1/DTD/svg11.dtd">
<svg width="100%" height="100%" viewBox="0 0 3334 2500" version="1.1" xmlns="http://www.w3.org/2000/svg" xmlns:xlink="http://www.w3.org/1999/xlink" xml:space="preserve" xmlns:serif="http://www.serif.com/" style="fill-rule:evenodd;clip-rule:evenodd;stroke-linecap:round;stroke-linejoin:round;stroke-miterlimit:1.5;">
    <g transform="matrix(4.16667,0,0,4.16667,0,0)">
        <g id="Layer1">
            <g transform="matrix(1.08333,0,0,1.53365,-33.3333,-51.3462)">
                <path d="M40,34.458C35.667,34.458 32.154,36.939 32.154,40L32.154,120C32.154,123.061 35.667,125.542 40,125.542L760,125.542C764.333,125.542 767.846,123.061 767.846,120L767.846,40C767.846,36.939 764.333,34.458 760,34.458L40,34.458ZM40,40L760,40L760,120L40,120L40,40Z" style="fill:#fff;"/>
            </g>
            <g transform="matrix(1.08333,0,0,1.00385,-33.3333,27.8462)">
                <path d="M40,160L40,560L760,560L760,160" style="fill:none;stroke:#fff;stroke-width:8.14px;"/>
            </g>
            <g transform="matrix(7.22894,0,0,7.44281,-1285.44,-606.477)">
                <text x="211.54px" y="94.817px" style="font-family:'SnellRoundhand', 'Snell Roundhand';font-weight:500;font-style:italic;font-size:12px;fill:#fff;">Calendar</text>
            </g>
        </g>
    </g>
</svg>
