<?xml version="1.0" encoding="UTF-8" standalone="no"?>
<!DOCTYPE svg PUBLIC "-//W3C//DTD SVG 1.1//EN" "http://www.w3.org/Graphics/SVG/1.1/DTD/svg11.dtd">
<svg width="100%" height="100%" viewBox="0 0 3334 2500" version="1.1" xmlns="http://www.w3.org/2000/svg" xmlns:xlink="http://www.w3.org/1999/xlink" xml:space="preserve" xmlns:serif="http://www.serif.com/" style="fill-rule:evenodd;clip-rule:evenodd;stroke-linecap:round;stroke-linejoin:round;stroke-miterlimit:1.5;">
    <g transform="matrix(4.16667,0,0,4.16667,0,0)">
        <g id="Layer2" transform="matrix(2,0,0,1.875,-400,-262.5)">
            <g transform="matrix(1,0,0,1,0,60)">
                <rect x="200" y="80" width="400" height="80" style="fill:none;stroke:#fff;stroke-width:8px;"/>
            </g>
            <g transform="matrix(1,0,0,1,0,180)">
                <rect x="200" y="80" width="400" height="80" style="fill:none;stroke:#fff;stroke-width:8px;"/>
            </g>
            <g transform="matrix(1,0,0,1,0,300)">
                <rect x="200" y="80" width="400" height="80" style="fill:none;stroke:#fff;stroke-width:8px;"/>
            </g>
            <path d="M220,200C220,200 236.605,193.891 240,160C243.395,126.109 241.489,223.376 260,200C278.511,176.624 280,180 280,180C280,180 280.473,203.49 290,200C299.527,196.51 312.09,177.829 310,180C307.91,182.171 304.737,200.402 320,200C335.263,199.598 400,200 400,200" style="fill:none;stroke:#fff;stroke-width:2.58px;"/>
            <g transform="matrix(1,0,0,1,0,121.789)">
                <path d="M220,200C220,200 236.605,193.891 240,160C243.395,126.109 241.489,223.376 260,200C278.511,176.624 280,180 280,180C280,180 280.473,203.49 290,200C299.527,196.51 312.09,177.829 310,180C307.91,182.171 304.737,200.402 320,200C335.263,199.598 400,200 400,200" style="fill:none;stroke:#fff;stroke-width:2.58px;"/>
            </g>
            <g transform="matrix(1,0,0,1,0,241.789)">
                <path d="M220,200C220,200 236.605,193.891 240,160C243.395,126.109 241.489,223.376 260,200C278.511,176.624 280,180 280,180C280,180 280.473,203.49 290,200C299.527,196.51 312.09,177.829 310,180C307.91,182.171 304.737,200.402 320,200C335.263,199.598 400,200 400,200" style="fill:none;stroke:#fff;stroke-width:2.58px;"/>
            </g>
        </g>
    </g>
</svg>
